<svg width="199" height="30" viewBox="0 0 199 30" fill="none" xmlns="http://www.w3.org/2000/svg">
<path d="M8.46301 23.8378V17.7005H27.4629V23.8378H8.46301ZM23.1264 1.56711L35.6583 29.1299H27.5364L17.0258 4.80115H19.2309L8.68351 29.1299H0.561683L13.0936 1.56711H23.1264ZM43.8217 16.8185C43.8217 18.068 44.0545 19.1583 44.52 20.0893C45.01 20.9958 45.7205 21.6941 46.6515 22.1841C47.607 22.6741 48.7708 22.9191 50.1428 22.9191C51.5393 22.9191 52.7031 22.6741 53.6341 22.1841C54.5651 21.6941 55.2633 20.9958 55.7288 20.0893C56.1944 19.1583 56.4271 18.068 56.4271 16.8185V1.56711H64.0712V17.186C64.0712 19.7095 63.4832 21.9146 62.3072 23.8011C61.1557 25.6631 59.5386 27.1209 57.4561 28.1744C55.3736 29.2034 52.9358 29.7179 50.1428 29.7179C47.3743 29.7179 44.9365 29.2034 42.8295 28.1744C40.747 27.1209 39.1177 25.6631 37.9417 23.8011C36.7902 21.9146 36.2144 19.7095 36.2144 17.186V1.56711H43.8217V16.8185ZM74.1014 13.6212H84.1343C85.3593 13.6212 86.3148 13.3395 87.0008 12.776C87.6868 12.2125 88.0298 11.4285 88.0298 10.424C88.0298 9.39494 87.6868 8.61093 87.0008 8.07193C86.3148 7.50842 85.3593 7.22667 84.1343 7.22667H73.0357L76.4535 3.58838V29.1299H68.8461V1.56711H85.2001C87.3071 1.56711 89.1446 1.94687 90.7126 2.70638C92.2806 3.44138 93.5056 4.47039 94.3876 5.79341C95.2697 7.09192 95.7107 8.63543 95.7107 10.424C95.7107 12.1635 95.2697 13.6947 94.3876 15.0177C93.5056 16.3408 92.2806 17.3698 90.7126 18.1048C89.1446 18.8398 87.3071 19.2073 85.2001 19.2073H74.1014V13.6212ZM78.2175 16.2305H86.7803L96.6662 29.1299H87.8461L78.2175 16.2305ZM114.924 29.7179C111.665 29.7179 108.799 29.1176 106.324 27.9171C103.874 26.7166 101.963 25.0383 100.591 22.8823C99.2435 20.7263 98.5697 18.215 98.5697 15.3485C98.5697 12.482 99.2435 9.9707 100.591 7.81468C101.963 5.65865 103.874 3.98039 106.324 2.77988C108.799 1.57937 111.665 0.97911 114.924 0.97911C118.207 0.97911 121.073 1.57937 123.523 2.77988C125.973 3.98039 127.884 5.65865 129.256 7.81468C130.628 9.9707 131.314 12.482 131.314 15.3485C131.314 18.215 130.628 20.7263 129.256 22.8823C127.884 25.0383 125.973 26.7166 123.523 27.9171C121.073 29.1176 118.207 29.7179 114.924 29.7179ZM114.924 22.9191C116.712 22.9191 118.256 22.6128 119.554 22.0003C120.853 21.3878 121.845 20.518 122.531 19.391C123.241 18.264 123.597 16.9165 123.597 15.3485C123.597 13.7805 123.241 12.433 122.531 11.306C121.845 10.1789 120.853 9.30919 119.554 8.69668C118.256 8.08418 116.712 7.77793 114.924 7.77793C113.16 7.77793 111.628 8.08418 110.33 8.69668C109.031 9.30919 108.027 10.1789 107.316 11.306C106.606 12.433 106.251 13.7805 106.251 15.3485C106.251 16.9165 106.606 18.264 107.316 19.391C108.027 20.518 109.031 21.3878 110.33 22.0003C111.628 22.6128 113.16 22.9191 114.924 22.9191ZM140.496 13.6212H150.529C151.754 13.6212 152.709 13.3395 153.396 12.776C154.082 12.2125 154.425 11.4285 154.425 10.424C154.425 9.39494 154.082 8.61093 153.396 8.07193C152.709 7.50842 151.754 7.22667 150.529 7.22667H139.43L142.848 3.58838V29.1299H135.241V1.56711H151.595C153.702 1.56711 155.539 1.94687 157.107 2.70638C158.675 3.44138 159.9 4.47039 160.782 5.79341C161.664 7.09192 162.105 8.63543 162.105 10.424C162.105 12.1635 161.664 13.6947 160.782 15.0177C159.9 16.3408 158.675 17.3698 157.107 18.1048C155.539 18.8398 153.702 19.2073 151.595 19.2073H140.496V13.6212ZM144.612 16.2305H153.175L163.061 29.1299H154.241L144.612 16.2305ZM171.327 23.8378V17.7005H190.327V23.8378H171.327ZM185.991 1.56711L198.523 29.1299H190.401L179.89 4.80115H182.095L171.548 29.1299H163.426L175.958 1.56711H185.991Z" fill="white"/>
</svg>
