<svg width="275" height="27" viewBox="0 0 275 27" fill="none" xmlns="http://www.w3.org/2000/svg">
<path d="M7.43298 1.06613V2.86482H2.02501L2.94222 1.9476V10H0.917211V1.06613H7.43298ZM8.79279 1.06613H17.2025V10H15.1894V1.93569L16.0947 2.8529H9.9125L10.7702 2.18584C10.8337 2.76555 10.8774 3.32144 10.9012 3.8535C10.9329 4.38556 10.9488 4.88586 10.9488 5.35439C10.9488 6.48204 10.8496 7.39925 10.651 8.10602C10.4525 8.81279 10.1428 9.33294 9.72191 9.66647C9.30103 10 8.74911 10.1668 8.06617 10.1668C7.79617 10.1668 7.52617 10.135 7.25616 10.0715C6.98616 10.0159 6.73998 9.9325 6.51763 9.82132V8.12984C6.8591 8.26484 7.17675 8.33234 7.47058 8.33234C8.02646 8.33234 8.42749 8.07823 8.67367 7.56999C8.91985 7.05381 9.04294 6.21601 9.04294 5.05659C9.04294 4.53247 9.02308 3.93688 8.98338 3.26982C8.94367 2.60276 8.88014 1.86819 8.79279 1.06613ZM20.506 8.11793V6.4741H26.7002V8.11793H20.506ZM24.9491 1.06613L29.1302 10H26.9741L23.3172 1.88805H23.9843L20.3273 10H18.1713L22.3524 1.06613H24.9491ZM35.8215 5.59262L36.0121 5.18762C36.7029 5.2035 37.2747 5.31468 37.7274 5.52115C38.18 5.71968 38.5135 5.99366 38.728 6.34307C38.9424 6.68454 39.0496 7.07763 39.0496 7.52234C39.0496 7.99881 38.9344 8.42367 38.7041 8.79691C38.4818 9.17014 38.1522 9.46397 37.7154 9.67838C37.2787 9.89279 36.7307 10 36.0716 10H29.806L30.4969 5.41395L29.806 1.06613H35.8453C36.6712 1.06613 37.3104 1.26069 37.7631 1.64981C38.2237 2.03099 38.454 2.55908 38.454 3.23408C38.454 3.59938 38.3666 3.95276 38.1919 4.29423C38.0252 4.63571 37.7472 4.92556 37.3581 5.1638C36.9769 5.39409 36.4647 5.53704 35.8215 5.59262ZM31.8072 9.48779L31.0329 8.51102H35.6547C36.0835 8.51102 36.4131 8.41176 36.6434 8.21323C36.8816 8.00675 37.0007 7.72087 37.0007 7.35557C37.0007 6.98234 36.8657 6.68851 36.5957 6.4741C36.3257 6.25175 35.9287 6.14057 35.4046 6.14057H31.6404V4.68733H35.1663C35.5237 4.68733 35.8175 4.58806 36.0478 4.38953C36.286 4.18306 36.4051 3.89717 36.4051 3.53188C36.4051 3.25394 36.3059 3.02364 36.1074 2.84099C35.9088 2.6504 35.6229 2.55511 35.2497 2.55511H31.0329L31.8072 1.57834L32.4385 5.41395L31.8072 9.48779ZM40.3984 1.06613H42.4234V10H40.3984V1.06613ZM47.5455 1.06613H49.5705V10H47.5455V1.06613ZM41.5062 4.59203H48.4389V6.36689H41.5062V4.59203ZM52.868 8.11793V6.4741H59.0622V8.11793H52.868ZM57.3111 1.06613L61.4922 10H59.3362L55.6792 1.88805H56.3463L52.6894 10H50.5333L54.7144 1.06613H57.3111ZM69.2436 5.15189V6.60513H65.408L65.3961 6.56939C64.737 6.56939 64.1613 6.45822 63.6689 6.23586C63.1845 6.00557 62.8033 5.68792 62.5254 5.28292C62.2474 4.86997 62.1085 4.38953 62.1085 3.84159C62.1085 3.2857 62.2474 2.80129 62.5254 2.38834C62.8033 1.9754 63.1845 1.65378 63.6689 1.42348C64.1613 1.18525 64.737 1.06613 65.3961 1.06613H70.6373V10H68.6123V1.62599L69.5176 2.5432H65.6582C65.1896 2.5432 64.8204 2.65834 64.5504 2.88864C64.2804 3.11893 64.1454 3.43658 64.1454 3.84159C64.1454 4.24659 64.2804 4.56821 64.5504 4.80644C64.8204 5.03674 65.1896 5.15189 65.6582 5.15189H69.2436ZM67.5164 5.81895L64.2645 10H61.906L65.2174 5.81895H67.5164ZM85.1898 6.36689C85.1024 7.12131 84.8364 7.78837 84.3917 8.36808C83.9549 8.93985 83.3752 9.38456 82.6525 9.7022C81.9378 10.0199 81.1199 10.1787 80.1987 10.1787C79.1822 10.1787 78.2888 9.98412 77.5185 9.595C76.7562 9.20588 76.1606 8.66588 75.7318 7.97499C75.3029 7.27616 75.0885 6.46219 75.0885 5.53306C75.0885 4.60394 75.3029 3.79394 75.7318 3.10305C76.1606 2.40422 76.7562 1.86025 77.5185 1.47113C78.2888 1.08201 79.1822 0.887452 80.1987 0.887452C81.1199 0.887452 81.9378 1.04628 82.6525 1.36393C83.3752 1.68157 83.9549 2.12628 84.3917 2.69805C84.8364 3.26982 85.1024 3.93688 85.1898 4.69924H83.1528C83.0734 4.27835 82.9027 3.91703 82.6406 3.61526C82.3786 3.30555 82.0411 3.06732 81.6281 2.90055C81.2152 2.73379 80.7347 2.6504 80.1868 2.6504C79.5594 2.6504 79.0155 2.76952 78.5549 3.00776C78.1022 3.23805 77.7528 3.57158 77.5066 4.00835C77.2605 4.43718 77.1374 4.94541 77.1374 5.53306C77.1374 6.12071 77.2605 6.63292 77.5066 7.06969C77.7528 7.49852 78.1022 7.83205 78.5549 8.07028C79.0155 8.30058 79.5594 8.41573 80.1868 8.41573C80.7347 8.41573 81.2152 8.33631 81.6281 8.17749C82.0411 8.01072 82.3786 7.77646 82.6406 7.47469C82.9027 7.16498 83.0734 6.79572 83.1528 6.36689H85.1898ZM88.9733 1.97143H90.9864V10H88.9733V1.97143ZM85.4116 1.06613H94.5361V2.8529H85.4116V1.06613ZM97.7616 10L99.2982 7.34366H99.322L102.943 1.06613H105.135L99.9533 10H97.7616ZM99.2982 8.70161L94.8432 1.06613H97.0707L100.692 7.29602L99.2982 8.70161ZM104.326 11.8225V8.21323H105.994L106.851 8.23705H113.284L113.772 8.21323H116.178V11.8225H114.284V10H106.22V11.8225H104.326ZM106.244 1.06613H114.618V9.35676H112.605V1.92378L113.51 2.82908H107.328L108.174 2.17393C108.221 2.57099 108.253 2.96408 108.269 3.3532C108.285 3.74232 108.293 4.10762 108.293 4.44909C108.293 5.41792 108.217 6.23983 108.066 6.91484C107.915 7.5819 107.689 8.09014 107.387 8.43955C107.086 8.78102 106.712 8.95176 106.268 8.95176L105.434 8.24896C105.767 7.86778 106.014 7.33175 106.172 6.64086C106.339 5.94204 106.422 5.07247 106.422 4.03217C106.422 3.57158 106.407 3.09114 106.375 2.59084C106.343 2.09055 106.299 1.58231 106.244 1.06613ZM124.803 4.7588V6.30733H118.407V4.7588H124.803ZM119.765 5.53306L119.169 9.32103L118.288 8.32043H125.173V10H117.132L117.823 5.53306L117.132 1.06613H125.113V2.7457H118.288L119.169 1.7451L119.765 5.53306ZM126.713 1.06613H128.738V10H126.713V1.06613ZM133.86 1.06613H135.885V10H133.86V1.06613ZM127.82 4.59203H134.753V6.36689H127.82V4.59203ZM141.172 7.10543C139.917 7.10543 138.96 6.78778 138.301 6.15248C137.642 5.50924 137.312 4.58012 137.312 3.36511V1.06613H139.337V3.19835C139.337 3.90511 139.528 4.43718 139.909 4.79453C140.29 5.15189 140.862 5.33056 141.624 5.33056C142.061 5.33056 142.518 5.27895 142.994 5.17571C143.478 5.07247 143.959 4.92556 144.435 4.73497L144.554 6.35498C144.062 6.60116 143.522 6.78778 142.934 6.91484C142.355 7.0419 141.767 7.10543 141.172 7.10543ZM144.161 10V1.06613H146.175V10H144.161ZM155.397 4.7588V6.30733H149.001V4.7588H155.397ZM150.359 5.53306L149.763 9.32103L148.882 8.32043H155.767V10H147.726L148.417 5.53306L147.726 1.06613H155.707V2.7457H148.882L149.763 1.7451L150.359 5.53306ZM166.839 6.36689C166.752 7.12131 166.486 7.78837 166.041 8.36808C165.604 8.93985 165.025 9.38456 164.302 9.7022C163.587 10.0199 162.769 10.1787 161.848 10.1787C160.832 10.1787 159.938 9.98412 159.168 9.595C158.406 9.20588 157.81 8.66588 157.381 7.97499C156.952 7.27616 156.738 6.46219 156.738 5.53306C156.738 4.60394 156.952 3.79394 157.381 3.10305C157.81 2.40422 158.406 1.86025 159.168 1.47113C159.938 1.08201 160.832 0.887452 161.848 0.887452C162.769 0.887452 163.587 1.04628 164.302 1.36393C165.025 1.68157 165.604 2.12628 166.041 2.69805C166.486 3.26982 166.752 3.93688 166.839 4.69924H164.802C164.723 4.27835 164.552 3.91703 164.29 3.61526C164.028 3.30555 163.691 3.06732 163.278 2.90055C162.865 2.73379 162.384 2.6504 161.836 2.6504C161.209 2.6504 160.665 2.76952 160.204 3.00776C159.752 3.23805 159.402 3.57158 159.156 4.00835C158.91 4.43718 158.787 4.94541 158.787 5.53306C158.787 6.12071 158.91 6.63292 159.156 7.06969C159.402 7.49852 159.752 7.83205 160.204 8.07028C160.665 8.30058 161.209 8.41573 161.836 8.41573C162.384 8.41573 162.865 8.33631 163.278 8.17749C163.691 8.01072 164.028 7.77646 164.29 7.47469C164.552 7.16498 164.723 6.79572 164.802 6.36689H166.839ZM168.16 10V1.06613H170.173V8.35617L169.601 7.95117L175.128 1.06613H177.284L169.982 10H168.16ZM172.424 5.62836L173.877 4.32997L177.415 10H175.104L172.424 5.62836ZM179.757 8.11793V6.4741H185.951V8.11793H179.757ZM184.2 1.06613L188.381 10H186.225L182.568 1.88805H183.235L179.578 10H177.422L181.603 1.06613H184.2ZM196.133 5.15189V6.60513H192.297L192.285 6.56939C191.626 6.56939 191.05 6.45822 190.558 6.23586C190.073 6.00557 189.692 5.68792 189.414 5.28292C189.136 4.86997 188.997 4.38953 188.997 3.84159C188.997 3.2857 189.136 2.80129 189.414 2.38834C189.692 1.9754 190.073 1.65378 190.558 1.42348C191.05 1.18525 191.626 1.06613 192.285 1.06613H197.526V10H195.501V1.62599L196.406 2.5432H192.547C192.079 2.5432 191.709 2.65834 191.439 2.88864C191.169 3.11893 191.034 3.43658 191.034 3.84159C191.034 4.24659 191.169 4.56821 191.439 4.80644C191.709 5.03674 192.079 5.15189 192.547 5.15189H196.133ZM194.405 5.81895L191.153 10H188.795L192.106 5.81895H194.405ZM204.858 1.97143H206.871V10H204.858V1.97143ZM201.296 1.06613H210.42V2.8529H201.296V1.06613ZM213.646 10L215.183 7.34366H215.206L218.828 1.06613H221.019L215.838 10H213.646ZM215.183 8.70161L210.728 1.06613H212.955L216.576 7.29602L215.183 8.70161ZM230.947 6.36689C230.859 7.12131 230.593 7.78837 230.149 8.36808C229.712 8.93985 229.132 9.38456 228.41 9.7022C227.695 10.0199 226.877 10.1787 225.956 10.1787C224.939 10.1787 224.046 9.98412 223.276 9.595C222.513 9.20588 221.918 8.66588 221.489 7.97499C221.06 7.27616 220.846 6.46219 220.846 5.53306C220.846 4.60394 221.06 3.79394 221.489 3.10305C221.918 2.40422 222.513 1.86025 223.276 1.47113C224.046 1.08201 224.939 0.887452 225.956 0.887452C226.877 0.887452 227.695 1.04628 228.41 1.36393C229.132 1.68157 229.712 2.12628 230.149 2.69805C230.593 3.26982 230.859 3.93688 230.947 4.69924H228.91C228.83 4.27835 228.66 3.91703 228.398 3.61526C228.136 3.30555 227.798 3.06732 227.385 2.90055C226.972 2.73379 226.492 2.6504 225.944 2.6504C225.316 2.6504 224.772 2.76952 224.312 3.00776C223.859 3.23805 223.51 3.57158 223.264 4.00835C223.017 4.43718 222.894 4.94541 222.894 5.53306C222.894 6.12071 223.017 6.63292 223.264 7.06969C223.51 7.49852 223.859 7.83205 224.312 8.07028C224.772 8.30058 225.316 8.41573 225.944 8.41573C226.492 8.41573 226.972 8.33631 227.385 8.17749C227.798 8.01072 228.136 7.77646 228.398 7.47469C228.66 7.16498 228.83 6.79572 228.91 6.36689H230.947ZM237.044 10.1787C236.004 10.1787 235.09 9.98412 234.304 9.595C233.526 9.20588 232.918 8.66588 232.482 7.97499C232.045 7.27616 231.826 6.46219 231.826 5.53306C231.826 4.60394 232.045 3.79394 232.482 3.10305C232.918 2.40422 233.526 1.86025 234.304 1.47113C235.09 1.08201 236.004 0.887452 237.044 0.887452C238.084 0.887452 238.993 1.08201 239.772 1.47113C240.558 1.86025 241.169 2.40422 241.606 3.10305C242.043 3.79394 242.261 4.60394 242.261 5.53306C242.261 6.46219 242.043 7.27616 241.606 7.97499C241.169 8.66588 240.558 9.20588 239.772 9.595C238.993 9.98412 238.084 10.1787 237.044 10.1787ZM237.044 8.37999C237.695 8.37999 238.255 8.26484 238.723 8.03455C239.2 7.80425 239.565 7.47469 239.819 7.04587C240.081 6.61704 240.212 6.11277 240.212 5.53306C240.212 4.95336 240.081 4.44909 239.819 4.02026C239.565 3.59144 239.2 3.26188 238.723 3.03158C238.255 2.80129 237.695 2.68614 237.044 2.68614C236.401 2.68614 235.841 2.80129 235.364 3.03158C234.888 3.26188 234.519 3.59144 234.257 4.02026C234.002 4.44909 233.875 4.95336 233.875 5.53306C233.875 6.11277 234.002 6.61704 234.257 7.04587C234.519 7.47469 234.888 7.80425 235.364 8.03455C235.841 8.26484 236.401 8.37999 237.044 8.37999ZM249.292 5.59262L249.483 5.18762C250.174 5.2035 250.745 5.31468 251.198 5.52115C251.651 5.71968 251.984 5.99366 252.199 6.34307C252.413 6.68454 252.52 7.07763 252.52 7.52234C252.52 7.99881 252.405 8.42367 252.175 8.79691C251.952 9.17014 251.623 9.46397 251.186 9.67838C250.749 9.89279 250.201 10 249.542 10H243.277L243.968 5.41395L243.277 1.06613H249.316C250.142 1.06613 250.781 1.26069 251.234 1.64981C251.694 2.03099 251.925 2.55908 251.925 3.23408C251.925 3.59938 251.837 3.95276 251.663 4.29423C251.496 4.63571 251.218 4.92556 250.829 5.1638C250.448 5.39409 249.935 5.53704 249.292 5.59262ZM245.278 9.48779L244.504 8.51102H249.125C249.554 8.51102 249.884 8.41176 250.114 8.21323C250.352 8.00675 250.471 7.72087 250.471 7.35557C250.471 6.98234 250.336 6.68851 250.066 6.4741C249.796 6.25175 249.399 6.14057 248.875 6.14057H245.111V4.68733H248.637C248.994 4.68733 249.288 4.58806 249.518 4.38953C249.757 4.18306 249.876 3.89717 249.876 3.53188C249.876 3.25394 249.777 3.02364 249.578 2.84099C249.379 2.6504 249.094 2.55511 248.72 2.55511H244.504L245.278 1.57834L245.909 5.41395L245.278 9.48779ZM253.869 10V1.06613H255.882V8.35617L255.31 7.95117L260.837 1.06613H262.993L255.692 10H253.869ZM258.133 5.62836L259.587 4.32997L263.125 10H260.814L258.133 5.62836ZM265.466 8.11793V6.4741H271.66V8.11793H265.466ZM269.909 1.06613L274.09 10H271.934L268.277 1.88805H268.944L265.288 10H263.132L267.313 1.06613H269.909ZM0.917211 25V16.0661H2.93031V23.3562L2.35854 22.9512L7.88563 16.0661H10.0417L2.73972 25H0.917211ZM5.18165 20.6284L6.63489 19.33L10.1727 25H7.86181L5.18165 20.6284ZM13.1457 25L14.6824 22.3437H14.7062L18.3274 16.0661H20.5191L15.3375 25H13.1457ZM14.6824 23.7016L10.2273 16.0661H12.4548L16.076 22.296L14.6824 23.7016ZM21.7632 16.0661H30.1729V25H28.1598V16.9357L29.0651 17.8529H22.8829L23.7405 17.1858C23.8041 17.7656 23.8478 18.3214 23.8716 18.8535C23.9033 19.3856 23.9192 19.8859 23.9192 20.3544C23.9192 21.482 23.82 22.3993 23.6214 23.106C23.4229 23.8128 23.1132 24.3329 22.6923 24.6665C22.2714 25 21.7195 25.1668 21.0366 25.1668C20.7666 25.1668 20.4966 25.135 20.2266 25.0715C19.9566 25.0159 19.7104 24.9325 19.488 24.8213V23.1298C19.8295 23.2648 20.1471 23.3323 20.441 23.3323C20.9969 23.3323 21.3979 23.0782 21.6441 22.57C21.8902 22.0538 22.0133 21.216 22.0133 20.0566C22.0133 19.5325 21.9935 18.9369 21.9538 18.2698C21.9141 17.6028 21.8505 16.8682 21.7632 16.0661ZM32.0113 25V16.0661H34.0363V24.2972L33.1191 23.3919H36.7403C37.2088 23.3919 37.5781 23.2728 37.8481 23.0345C38.126 22.7884 38.265 22.4588 38.265 22.0459C38.265 21.6329 38.126 21.3073 37.8481 21.0691C37.5781 20.8229 37.2088 20.6998 36.7403 20.6998H32.9404V19.0917H36.8475C37.5622 19.0917 38.1776 19.2148 38.6938 19.461C39.21 19.7072 39.607 20.0526 39.885 20.4973C40.1709 20.942 40.3138 21.4582 40.3138 22.0459C40.3138 22.6335 40.1709 23.1497 39.885 23.5944C39.607 24.0391 39.21 24.3846 38.6938 24.6307C38.1776 24.8769 37.5622 25 36.8475 25H32.0113ZM43.0359 16.9714H45.049V25H43.0359V16.9714ZM39.4743 16.0661H48.5988V17.8529H39.4743V16.0661ZM51.8243 25L53.3609 22.3437H53.3847L57.0059 16.0661H59.1977L54.016 25H51.8243ZM53.3609 23.7016L48.9059 16.0661H51.1334L54.7546 22.296L53.3609 23.7016ZM65.0342 16.0661C65.741 16.0661 66.3524 16.1892 66.8686 16.4354C67.3848 16.6816 67.7779 17.027 68.0479 17.4717C68.3258 17.9164 68.4648 18.4326 68.4648 19.0203C68.4648 19.6079 68.3258 20.1241 68.0479 20.5688C67.7779 21.0056 67.3848 21.351 66.8686 21.6051C66.3524 21.8513 65.741 21.9744 65.0342 21.9744H61.0914V20.3067H64.927C65.3955 20.3067 65.7608 20.1916 66.0229 19.9613C66.2929 19.731 66.4279 19.4173 66.4279 19.0203C66.4279 18.6153 66.2929 18.3016 66.0229 18.0792C65.7608 17.8489 65.3955 17.7338 64.927 17.7338H61.2701L62.1873 16.7689V25H60.1623V16.0661H65.0342ZM69.6429 16.0661H71.6679V25H69.6429V16.0661ZM76.79 16.0661H78.815V25H76.79V16.0661ZM70.7507 19.592H77.6834V21.3669H70.7507V19.592ZM85.424 25.1787C84.3837 25.1787 83.4705 24.9841 82.6843 24.595C81.906 24.2059 81.2985 23.6659 80.8618 22.975C80.425 22.2762 80.2066 21.4622 80.2066 20.5331C80.2066 19.6039 80.425 18.7939 80.8618 18.1031C81.2985 17.4042 81.906 16.8603 82.6843 16.4711C83.4705 16.082 84.3837 15.8875 85.424 15.8875C86.4643 15.8875 87.3736 16.082 88.1518 16.4711C88.938 16.8603 89.5495 17.4042 89.9862 18.1031C90.423 18.7939 90.6414 19.6039 90.6414 20.5331C90.6414 21.4622 90.423 22.2762 89.9862 22.975C89.5495 23.6659 88.938 24.2059 88.1518 24.595C87.3736 24.9841 86.4643 25.1787 85.424 25.1787ZM85.424 23.38C86.0752 23.38 86.635 23.2648 87.1036 23.0345C87.58 22.8043 87.9453 22.4747 88.1995 22.0459C88.4615 21.617 88.5925 21.1128 88.5925 20.5331C88.5925 19.9534 88.4615 19.4491 88.1995 19.0203C87.9453 18.5914 87.58 18.2619 87.1036 18.0316C86.635 17.8013 86.0752 17.6861 85.424 17.6861C84.7808 17.6861 84.2209 17.8013 83.7444 18.0316C83.268 18.2619 82.8987 18.5914 82.6366 19.0203C82.3825 19.4491 82.2554 19.9534 82.2554 20.5331C82.2554 21.1128 82.3825 21.617 82.6366 22.0459C82.8987 22.4747 83.268 22.8043 83.7444 23.0345C84.2209 23.2648 84.7808 23.38 85.424 23.38ZM92.0357 25V16.0661H94.0131V23.9756L93.4056 23.8565L99.0518 16.0661H101.684V25H99.7069V16.9833L100.314 17.1025L94.5968 25H92.0357ZM93.9893 13.4217H95.5973C95.6926 13.6996 95.8396 13.9141 96.0381 14.0649C96.2446 14.2158 96.5026 14.2913 96.8124 14.2913C97.1221 14.2913 97.3762 14.2158 97.5747 14.0649C97.7812 13.9141 97.9281 13.6996 98.0154 13.4217H99.6355C99.4766 14.1205 99.1471 14.6327 98.6468 14.9583C98.1465 15.2839 97.535 15.4467 96.8124 15.4467C96.0897 15.4467 95.4782 15.2839 94.9779 14.9583C94.4776 14.6327 94.1481 14.1205 93.9893 13.4217ZM116.237 21.3669C116.15 22.1213 115.884 22.7884 115.439 23.3681C115.002 23.9398 114.423 24.3846 113.7 24.7022C112.985 25.0199 112.167 25.1787 111.246 25.1787C110.23 25.1787 109.336 24.9841 108.566 24.595C107.804 24.2059 107.208 23.6659 106.779 22.975C106.35 22.2762 106.136 21.4622 106.136 20.5331C106.136 19.6039 106.35 18.7939 106.779 18.1031C107.208 17.4042 107.804 16.8603 108.566 16.4711C109.336 16.082 110.23 15.8875 111.246 15.8875C112.167 15.8875 112.985 16.0463 113.7 16.3639C114.423 16.6816 115.002 17.1263 115.439 17.698C115.884 18.2698 116.15 18.9369 116.237 19.6992H114.2C114.121 19.2784 113.95 18.917 113.688 18.6153C113.426 18.3056 113.089 18.0673 112.676 17.9006C112.263 17.7338 111.782 17.6504 111.234 17.6504C110.607 17.6504 110.063 17.7695 109.602 18.0078C109.15 18.2381 108.8 18.5716 108.554 19.0084C108.308 19.4372 108.185 19.9454 108.185 20.5331C108.185 21.1207 108.308 21.6329 108.554 22.0697C108.8 22.4985 109.15 22.832 109.602 23.0703C110.063 23.3006 110.607 23.4157 111.234 23.4157C111.782 23.4157 112.263 23.3363 112.676 23.1775C113.089 23.0107 113.426 22.7765 113.688 22.4747C113.95 22.165 114.121 21.7957 114.2 21.3669H116.237ZM120.021 16.9714H122.034V25H120.021V16.9714ZM116.459 16.0661H125.584V17.8529H116.459V16.0661ZM131.07 25.1787C130.03 25.1787 129.117 24.9841 128.331 24.595C127.553 24.2059 126.945 23.6659 126.508 22.975C126.071 22.2762 125.853 21.4622 125.853 20.5331C125.853 19.6039 126.071 18.7939 126.508 18.1031C126.945 17.4042 127.553 16.8603 128.331 16.4711C129.117 16.082 130.03 15.8875 131.07 15.8875C132.111 15.8875 133.02 16.082 133.798 16.4711C134.584 16.8603 135.196 17.4042 135.633 18.1031C136.069 18.7939 136.288 19.6039 136.288 20.5331C136.288 21.4622 136.069 22.2762 135.633 22.975C135.196 23.6659 134.584 24.2059 133.798 24.595C133.02 24.9841 132.111 25.1787 131.07 25.1787ZM131.07 23.38C131.722 23.38 132.282 23.2648 132.75 23.0345C133.227 22.8043 133.592 22.4747 133.846 22.0459C134.108 21.617 134.239 21.1128 134.239 20.5331C134.239 19.9534 134.108 19.4491 133.846 19.0203C133.592 18.5914 133.227 18.2619 132.75 18.0316C132.282 17.8013 131.722 17.6861 131.07 17.6861C130.427 17.6861 129.867 17.8013 129.391 18.0316C128.914 18.2619 128.545 18.5914 128.283 19.0203C128.029 19.4491 127.902 19.9534 127.902 20.5331C127.902 21.1128 128.029 21.617 128.283 22.0459C128.545 22.4747 128.914 22.8043 129.391 23.0345C129.867 23.2648 130.427 23.38 131.07 23.38ZM138.811 16.0661H147.221V25H145.207V16.9357L146.113 17.8529H139.931L140.788 17.1858C140.852 17.7656 140.895 18.3214 140.919 18.8535C140.951 19.3856 140.967 19.8859 140.967 20.3544C140.967 21.482 140.868 22.3993 140.669 23.106C140.471 23.8128 140.161 24.3329 139.74 24.6665C139.319 25 138.767 25.1668 138.084 25.1668C137.814 25.1668 137.544 25.135 137.274 25.0715C137.004 25.0159 136.758 24.9325 136.536 24.8213V23.1298C136.877 23.2648 137.195 23.3323 137.489 23.3323C138.045 23.3323 138.446 23.0782 138.692 22.57C138.938 22.0538 139.061 21.216 139.061 20.0566C139.061 19.5325 139.041 18.9369 139.001 18.2698C138.962 17.6028 138.898 16.8682 138.811 16.0661ZM149.059 25V16.0661H151.036V23.9756L150.429 23.8565L156.075 16.0661H158.708V25H156.73V16.9833L157.338 17.1025L151.62 25H149.059ZM169.57 16.0661V23.8565L168.891 23.2132H171.13V26.8225H169.236V24.6546L169.939 25H160.54V16.0661H162.565V23.8565L161.922 23.2132H168.235L167.556 23.8565V16.0661H169.57ZM172.371 25V16.0661H174.396V24.2972L173.479 23.3919H177.1C177.568 23.3919 177.938 23.2728 178.208 23.0345C178.485 22.7884 178.624 22.4588 178.624 22.0459C178.624 21.6329 178.485 21.3073 178.208 21.0691C177.938 20.8229 177.568 20.6998 177.1 20.6998H173.3V19.0917H177.207C177.922 19.0917 178.537 19.2148 179.053 19.461C179.569 19.7072 179.967 20.0526 180.244 20.4973C180.53 20.942 180.673 21.4582 180.673 22.0459C180.673 22.6335 180.53 23.1497 180.244 23.5944C179.967 24.0391 179.569 24.3846 179.053 24.6307C178.537 24.8769 177.922 25 177.207 25H172.371ZM181.531 16.0661H183.556V25H181.531V16.0661Z" fill="white" fill-opacity="0.61"/>
</svg>
