<svg width="295" height="33" viewBox="0 0 295 33" fill="none" xmlns="http://www.w3.org/2000/svg">
<path d="M24.3731 0.922119V8.83467H4.86977L8.84743 4.81424V33H-0.00606471V0.922119H24.3731ZM35.7578 33L41.5318 22.9489H41.6601L54.1919 0.922119H63.8152L45.3811 33H35.7578ZM41.4035 28.6802L25.3645 0.922119H35.159L47.6907 22.7351L41.4035 28.6802ZM66.3009 26.841V19.6984H88.4133V26.841H66.3009ZM83.3663 0.922119L97.9511 33H88.4988L76.2664 4.68592H78.8327L66.5575 33H57.1053L71.69 0.922119H83.3663ZM134.949 0.922119V33H126.095V4.77147L130.073 8.79189H105.865L109.843 4.77147V33H100.989V0.922119H134.949ZM153.793 23.3339C149.231 23.3339 145.738 22.1505 143.315 19.7839C140.919 17.3888 139.722 13.9386 139.722 9.43345V0.922119H148.575V8.70635C148.575 10.9589 149.188 12.6555 150.414 13.796C151.641 14.9366 153.48 15.5069 155.932 15.5069C157.358 15.5069 158.855 15.35 160.423 15.0364C161.991 14.6942 163.559 14.2095 165.128 13.5822L165.641 20.6821C163.93 21.5375 162.062 22.1933 160.038 22.6495C158.013 23.1058 155.932 23.3339 153.793 23.3339ZM163.973 33V0.922119H172.869V33H163.973ZM178.803 33V0.922119H187.528V28.338L185.09 27.782L203.268 0.922119H214.859V33H206.091V5.07086L208.571 5.62688L190.052 33H178.803ZM233.737 23.3339C229.175 23.3339 225.682 22.1505 223.259 19.7839C220.863 17.3888 219.666 13.9386 219.666 9.43345V0.922119H228.519V8.70635C228.519 10.9589 229.132 12.6555 230.359 13.796C231.585 14.9366 233.424 15.5069 235.876 15.5069C237.302 15.5069 238.799 15.35 240.367 15.0364C241.935 14.6942 243.503 14.2095 245.072 13.5822L245.585 20.6821C243.874 21.5375 242.006 22.1933 239.982 22.6495C237.957 23.1058 235.876 23.3339 233.737 23.3339ZM243.917 33V0.922119H252.813V33H243.917ZM258.747 33V0.922119H267.472V28.338L265.034 27.782L283.212 0.922119H294.803V33H286.035V5.07086L288.515 5.62688L269.996 33H258.747Z" fill="#FF7CCE"/>
</svg>
