<svg width="163" height="36" viewBox="0 0 163 36" fill="none" xmlns="http://www.w3.org/2000/svg">
<mask id="path-1-outside-1_152_363" maskUnits="userSpaceOnUse" x="-1" y="-1" width="165" height="38" fill="black">
<rect fill="white" x="-1" y="-1" width="165" height="38"/>
<path d="M0.350283 35V0.379637H9.85934V27.3835L7.32052 25.3986L26.9387 0.379637H37.0479L8.98229 35H0.350283ZM16.8757 18.4745L23.8921 12.6583L37.5095 35H26.6618L16.8757 18.4745ZM46.2854 0.379637H80.2595V35H70.6581V4.53408L74.9972 8.87317H51.64L55.6559 5.68809C55.9021 7.71916 56.0714 9.67328 56.1637 11.5505C56.256 13.3969 56.3022 15.151 56.3022 16.8128C56.3022 21.2442 55.9021 24.8601 55.102 27.6605C54.3019 30.4301 53.0402 32.4612 51.3169 33.7537C49.5935 35.0462 47.3624 35.6924 44.6236 35.6924C43.4234 35.6924 42.2386 35.5693 41.0692 35.3231C39.9306 35.0769 38.8843 34.7077 37.9303 34.2153V26.2757C39.2844 26.7988 40.5307 27.0604 41.6693 27.0604C43.6696 27.0604 45.1006 26.1526 45.9622 24.3369C46.8547 22.5213 47.3009 19.5516 47.3009 15.428C47.3009 13.4277 47.2086 11.1812 47.0239 8.68852C46.8701 6.19586 46.6239 3.42623 46.2854 0.379637ZM94.8462 35L101.078 24.1523H101.216L114.741 0.379637H125.127L105.232 35H94.8462ZM100.939 30.3378L83.6292 0.379637H94.1999L107.725 23.9215L100.939 30.3378ZM134.559 13.5354H149.838C152.762 13.5354 155.162 13.9816 157.039 14.874C158.916 15.7665 160.317 17.0282 161.24 18.6592C162.163 20.2594 162.625 22.1366 162.625 24.2908C162.625 26.4449 162.117 28.3375 161.101 29.9685C160.086 31.5687 158.624 32.8151 156.716 33.7075C154.808 34.5692 152.515 35 149.838 35H127.312L129.989 17.0436L127.312 0.379637H159.947V7.62683H133.267L136.913 3.24159L139.083 16.8589L136.729 32.415L133.082 28.0298H148.592C149.977 28.0298 151.069 27.6759 151.869 26.9681C152.7 26.2603 153.116 25.2909 153.116 24.06C153.116 22.7982 152.7 21.8289 151.869 21.1519C151.069 20.4441 149.977 20.0902 148.592 20.0902H134.559V13.5354Z"/>
</mask>
<path d="M0.350283 35V0.379637H9.85934V27.3835L7.32052 25.3986L26.9387 0.379637H37.0479L8.98229 35H0.350283ZM16.8757 18.4745L23.8921 12.6583L37.5095 35H26.6618L16.8757 18.4745ZM46.2854 0.379637H80.2595V35H70.6581V4.53408L74.9972 8.87317H51.64L55.6559 5.68809C55.9021 7.71916 56.0714 9.67328 56.1637 11.5505C56.256 13.3969 56.3022 15.151 56.3022 16.8128C56.3022 21.2442 55.9021 24.8601 55.102 27.6605C54.3019 30.4301 53.0402 32.4612 51.3169 33.7537C49.5935 35.0462 47.3624 35.6924 44.6236 35.6924C43.4234 35.6924 42.2386 35.5693 41.0692 35.3231C39.9306 35.0769 38.8843 34.7077 37.9303 34.2153V26.2757C39.2844 26.7988 40.5307 27.0604 41.6693 27.0604C43.6696 27.0604 45.1006 26.1526 45.9622 24.3369C46.8547 22.5213 47.3009 19.5516 47.3009 15.428C47.3009 13.4277 47.2086 11.1812 47.0239 8.68852C46.8701 6.19586 46.6239 3.42623 46.2854 0.379637ZM94.8462 35L101.078 24.1523H101.216L114.741 0.379637H125.127L105.232 35H94.8462ZM100.939 30.3378L83.6292 0.379637H94.1999L107.725 23.9215L100.939 30.3378ZM134.559 13.5354H149.838C152.762 13.5354 155.162 13.9816 157.039 14.874C158.916 15.7665 160.317 17.0282 161.24 18.6592C162.163 20.2594 162.625 22.1366 162.625 24.2908C162.625 26.4449 162.117 28.3375 161.101 29.9685C160.086 31.5687 158.624 32.8151 156.716 33.7075C154.808 34.5692 152.515 35 149.838 35H127.312L129.989 17.0436L127.312 0.379637H159.947V7.62683H133.267L136.913 3.24159L139.083 16.8589L136.729 32.415L133.082 28.0298H148.592C149.977 28.0298 151.069 27.6759 151.869 26.9681C152.7 26.2603 153.116 25.2909 153.116 24.06C153.116 22.7982 152.7 21.8289 151.869 21.1519C151.069 20.4441 149.977 20.0902 148.592 20.0902H134.559V13.5354Z" fill="#FF7CCE"/>
<path d="M0.350283 35H-0.232552V35.5828H0.350283V35ZM0.350283 0.379637V-0.203197H-0.232552V0.379637H0.350283ZM9.85934 0.379637H10.4422V-0.203197H9.85934V0.379637ZM9.85934 27.3835L9.50036 27.8427L10.4422 28.579V27.3835H9.85934ZM7.32052 25.3986L6.86187 25.039L6.50171 25.4983L6.96154 25.8578L7.32052 25.3986ZM26.9387 0.379637V-0.203197H26.6551L26.4801 0.0199976L26.9387 0.379637ZM37.0479 0.379637L37.5006 0.746668L38.2706 -0.203197H37.0479V0.379637ZM8.98229 35V35.5828H9.2601L9.43504 35.367L8.98229 35ZM16.8757 18.4745L16.5038 18.0258L16.1207 18.3434L16.3742 18.7715L16.8757 18.4745ZM23.8921 12.6583L24.3898 12.355L24.039 11.7795L23.5202 12.2096L23.8921 12.6583ZM37.5095 35V35.5828H38.5473L38.0071 34.6967L37.5095 35ZM26.6618 35L26.1603 35.297L26.3295 35.5828H26.6618V35ZM0.933117 35V0.379637H-0.232552V35H0.933117ZM0.350283 0.962471H9.85934V-0.203197H0.350283V0.962471ZM9.27651 0.379637V27.3835H10.4422V0.379637H9.27651ZM10.2183 26.9244L7.6795 24.9395L6.96154 25.8578L9.50036 27.8427L10.2183 26.9244ZM7.77916 25.7583L27.3974 0.739276L26.4801 0.0199976L6.86187 25.039L7.77916 25.7583ZM26.9387 0.962471H37.0479V-0.203197H26.9387V0.962471ZM36.5951 0.0126057L8.52954 34.633L9.43504 35.367L37.5006 0.746668L36.5951 0.0126057ZM8.98229 34.4172H0.350283V35.5828H8.98229V34.4172ZM17.2477 18.9233L24.2641 13.107L23.5202 12.2096L16.5038 18.0258L17.2477 18.9233ZM23.3945 12.9617L37.0118 35.3033L38.0071 34.6967L24.3898 12.355L23.3945 12.9617ZM37.5095 34.4172H26.6618V35.5828H37.5095V34.4172ZM27.1633 34.703L17.3772 18.1776L16.3742 18.7715L26.1603 35.297L27.1633 34.703ZM46.2854 0.379637V-0.203197H45.6342L45.7061 0.444L46.2854 0.379637ZM80.2595 0.379637H80.8423V-0.203197H80.2595V0.379637ZM80.2595 35V35.5828H80.8423V35H80.2595ZM70.6581 35H70.0753V35.5828H70.6581V35ZM70.6581 4.53408L71.0702 4.12196L70.0753 3.127V4.53408H70.6581ZM74.9972 8.87317V9.456H76.4043L75.4093 8.46104L74.9972 8.87317ZM51.64 8.87317L51.2778 8.41652L49.9672 9.456H51.64V8.87317ZM55.6559 5.68809L56.2346 5.61796L56.1093 4.58465L55.2938 5.23144L55.6559 5.68809ZM56.1637 11.5505L55.5816 11.5791L55.5816 11.5796L56.1637 11.5505ZM55.102 27.6605L55.662 27.8222L55.6624 27.8206L55.102 27.6605ZM51.3169 33.7537L51.6666 34.2199V34.2199L51.3169 33.7537ZM41.0692 35.3231L40.9461 35.8928L40.9492 35.8935L41.0692 35.3231ZM37.9303 34.2153H37.3475V34.5703L37.663 34.7332L37.9303 34.2153ZM37.9303 26.2757L38.1404 25.732L37.3475 25.4257V26.2757H37.9303ZM45.9622 24.3369L45.4391 24.0798L45.4357 24.087L45.9622 24.3369ZM47.0239 8.68852L46.4422 8.72444L46.4427 8.73158L47.0239 8.68852ZM46.2854 0.962471H80.2595V-0.203197H46.2854V0.962471ZM79.6767 0.379637V35H80.8423V0.379637H79.6767ZM80.2595 34.4172H70.6581V35.5828H80.2595V34.4172ZM71.2409 35V4.53408H70.0753V35H71.2409ZM70.246 4.94621L74.5851 9.28529L75.4093 8.46104L71.0702 4.12196L70.246 4.94621ZM74.9972 8.29033H51.64V9.456H74.9972V8.29033ZM52.0022 9.32981L56.0181 6.14474L55.2938 5.23144L51.2778 8.41652L52.0022 9.32981ZM55.0774 5.75823C55.322 7.7767 55.49 9.71694 55.5816 11.5791L56.7458 11.5218C56.6528 9.62963 56.4823 7.66162 56.2346 5.61796L55.0774 5.75823ZM55.5816 11.5796C55.6735 13.4174 55.7194 15.1617 55.7194 16.8128H56.885C56.885 15.1403 56.8386 13.3764 56.7458 11.5214L55.5816 11.5796ZM55.7194 16.8128C55.7194 21.2151 55.3213 24.7716 54.5416 27.5004L55.6624 27.8206C56.483 24.9485 56.885 21.2733 56.885 16.8128H55.7194ZM54.5421 27.4987C53.7653 30.1875 52.5598 32.0929 50.9672 33.2874L51.6666 34.2199C53.5206 32.8294 54.8385 30.6727 55.662 27.8222L54.5421 27.4987ZM50.9672 33.2874C49.3692 34.4858 47.2709 35.1096 44.6236 35.1096V36.2752C47.454 36.2752 49.8178 35.6065 51.6666 34.2199L50.9672 33.2874ZM44.6236 35.1096C43.4636 35.1096 42.3191 34.9906 41.1893 34.7528L40.9492 35.8935C42.1582 36.148 43.3832 36.2752 44.6236 36.2752V35.1096ZM41.1924 34.7535C40.0997 34.5172 39.1024 34.1643 38.1976 33.6974L37.663 34.7332C38.6662 35.251 39.7616 35.6367 40.9461 35.8928L41.1924 34.7535ZM38.5132 34.2153V26.2757H37.3475V34.2153H38.5132ZM37.7203 26.8193C39.1237 27.3616 40.4421 27.6432 41.6693 27.6432V26.4776C40.6193 26.4776 39.445 26.2361 38.1404 25.732L37.7203 26.8193ZM41.6693 27.6432C42.7598 27.6432 43.7304 27.3948 44.555 26.8717C45.3794 26.3487 46.0197 25.5753 46.4888 24.5868L45.4357 24.087C45.0431 24.9142 44.5371 25.5026 43.9305 25.8874C43.3242 26.2721 42.5791 26.4776 41.6693 26.4776V27.6432ZM46.4853 24.594C47.4402 22.6513 47.8837 19.5668 47.8837 15.428H46.7181C46.7181 19.5364 46.2692 22.3912 45.4392 24.0798L46.4853 24.594ZM47.8837 15.428C47.8837 13.4103 47.7906 11.1491 47.6052 8.64547L46.4427 8.73158C46.6265 11.2133 46.7181 13.445 46.7181 15.428H47.8837ZM47.6057 8.65261C47.4511 6.1486 47.204 3.3693 46.8646 0.315273L45.7061 0.444C46.0438 3.48316 46.289 6.24311 46.4422 8.72443L47.6057 8.65261ZM94.8462 35L94.3408 34.7097L93.8392 35.5828H94.8462V35ZM101.078 24.1523V23.5695H100.741L100.572 23.862L101.078 24.1523ZM101.216 24.1523V24.7351H101.555L101.723 24.4405L101.216 24.1523ZM114.741 0.379637V-0.203197H114.402L114.235 0.091424L114.741 0.379637ZM125.127 0.379637L125.633 0.670036L126.135 -0.203197H125.127V0.379637ZM105.232 35V35.5828H105.57L105.738 35.2904L105.232 35ZM100.939 30.3378L100.435 30.6294L100.804 31.2681L101.34 30.7613L100.939 30.3378ZM83.6292 0.379637V-0.203197H82.6193L83.1245 0.671228L83.6292 0.379637ZM94.2 0.379637L94.7053 0.0892973L94.5373 -0.203197H94.2V0.379637ZM107.725 23.9215L108.125 24.345L108.459 24.0294L108.23 23.6311L107.725 23.9215ZM95.3516 35.2903L101.583 24.4426L100.572 23.862L94.3408 34.7097L95.3516 35.2903ZM101.078 24.7351H101.216V23.5695H101.078V24.7351ZM101.723 24.4405L115.248 0.66785L114.235 0.091424L100.71 23.8641L101.723 24.4405ZM114.741 0.962471H125.127V-0.203197H114.741V0.962471ZM124.622 0.0892372L104.727 34.7096L105.738 35.2904L125.633 0.670036L124.622 0.0892372ZM105.232 34.4172H94.8462V35.5828H105.232V34.4172ZM101.444 30.0462L84.1339 0.0880451L83.1245 0.671228L100.435 30.6294L101.444 30.0462ZM83.6292 0.962471H94.2V-0.203197H83.6292V0.962471ZM93.6946 0.669977L107.22 24.2118L108.23 23.6311L94.7053 0.0892973L93.6946 0.669977ZM107.325 23.498L100.539 29.9143L101.34 30.7613L108.125 24.345L107.325 23.498ZM134.559 13.5354V12.9525H133.976V13.5354H134.559ZM161.24 18.6592L160.733 18.9463L160.735 18.9504L161.24 18.6592ZM161.101 29.9685L161.593 30.2808L161.596 30.2766L161.101 29.9685ZM156.716 33.7075L156.956 34.2387L156.963 34.2354L156.716 33.7075ZM127.312 35L126.735 34.9141L126.636 35.5828H127.312V35ZM129.989 17.0436L130.566 17.1295L130.579 17.0402L130.565 16.9511L129.989 17.0436ZM127.312 0.379637V-0.203197H126.628L126.736 0.472093L127.312 0.379637ZM159.947 0.379637H160.53V-0.203197H159.947V0.379637ZM159.947 7.62683V8.20967H160.53V7.62683H159.947ZM133.267 7.62683L132.818 7.25418L132.024 8.20967H133.267V7.62683ZM136.913 3.24159L137.489 3.14989L137.287 1.881L136.465 2.86893L136.913 3.24159ZM139.083 16.8589L139.659 16.9461L139.673 16.8566L139.658 16.7672L139.083 16.8589ZM136.729 32.415L136.28 32.7877L137.111 33.7859L137.305 32.5022L136.729 32.415ZM133.082 28.0298V27.4469H131.839L132.634 28.4024L133.082 28.0298ZM151.869 26.9681L151.491 26.5243L151.483 26.5315L151.869 26.9681ZM151.869 21.1519L151.483 21.5884L151.492 21.5962L151.501 21.6037L151.869 21.1519ZM134.559 20.0902H133.976V20.673H134.559V20.0902ZM134.559 14.1182H149.838V12.9525H134.559V14.1182ZM149.838 14.1182C152.708 14.1182 155.015 14.5571 156.789 15.4004L157.289 14.3477C155.309 13.4061 152.815 12.9525 149.838 12.9525V14.1182ZM156.789 15.4004C158.57 16.2473 159.875 17.4308 160.733 18.9463L161.747 18.3721C160.758 16.6255 159.262 15.2857 157.289 14.3477L156.789 15.4004ZM160.735 18.9504C161.599 20.4484 162.042 22.2217 162.042 24.2908H163.207C163.207 22.0515 162.727 20.0705 161.745 18.3679L160.735 18.9504ZM162.042 24.2908C162.042 26.3496 161.558 28.1328 160.607 29.6604L161.596 30.2766C162.676 28.5422 163.207 26.5402 163.207 24.2908H162.042ZM160.609 29.6562C159.66 31.1524 158.288 32.3288 156.469 33.1796L156.963 34.2354C158.96 33.3014 160.512 31.985 161.593 30.2808L160.609 29.6562ZM156.476 33.1763C154.661 33.9959 152.455 34.4172 149.838 34.4172V35.5828C152.576 35.5828 154.955 35.1425 156.956 34.2387L156.476 33.1763ZM149.838 34.4172H127.312V35.5828H149.838V34.4172ZM127.888 35.0859L130.566 17.1295L129.413 16.9576L126.735 34.9141L127.888 35.0859ZM130.565 16.9511L127.887 0.287182L126.736 0.472093L129.414 17.136L130.565 16.9511ZM127.312 0.962471H159.947V-0.203197H127.312V0.962471ZM159.364 0.379637V7.62683H160.53V0.379637H159.364ZM159.947 7.044H133.267V8.20967H159.947V7.044ZM133.715 7.99949L137.361 3.61425L136.465 2.86893L132.818 7.25418L133.715 7.99949ZM136.338 3.33329L138.507 16.9506L139.658 16.7672L137.489 3.14989L136.338 3.33329ZM138.506 16.7717L136.152 32.3278L137.305 32.5022L139.659 16.9461L138.506 16.7717ZM137.177 32.0424L133.53 27.6571L132.634 28.4024L136.28 32.7877L137.177 32.0424ZM133.082 28.6126H148.592V27.4469H133.082V28.6126ZM148.592 28.6126C150.076 28.6126 151.32 28.2318 152.255 27.4046L151.483 26.5315C150.818 27.1199 149.878 27.4469 148.592 27.4469V28.6126ZM152.247 27.4118C153.226 26.5783 153.698 25.4372 153.698 24.06H152.533C152.533 25.1446 152.175 25.9423 151.491 26.5244L152.247 27.4118ZM153.698 24.06C153.698 22.6576 153.229 21.5079 152.237 20.7L151.501 21.6037C152.171 22.1499 152.533 22.9389 152.533 24.06H153.698ZM152.255 20.7153C151.32 19.8881 150.076 19.5073 148.592 19.5073V20.673C149.878 20.673 150.818 21 151.483 21.5884L152.255 20.7153ZM148.592 19.5073H134.559V20.673H148.592V19.5073ZM135.142 20.0902V13.5354H133.976V20.0902H135.142Z" fill="black" mask="url(#path-1-outside-1_152_363)"/>
</svg>
